:SAMPLES-PER-SECOND 30
:FULLY-SPECIFIED
:DEGREES
557
root  11.0202 38.8062 34.3677 175.614 62.2463 -179.484
RightUpLeg  -16.1586 -8.70066 -9.62725
RightLeg  0.270701 5.3479 1.73121
RightFoot  2.65947 -1.06371 8.80025
RightToes  -5.8209e-011 0 -3.6325e-017
Spine  5.01285 -1.77095 0.0848795
Spine1  9.44562 -1.38899 -2.15382
HEad  49.2222 0.717236 178.064
LeftShoulder1  9.24461 -12.8403 -49.38
LeftArm  -3.94556 -4.03683 -32.0367
LeftForeArm  35.1589 -40.444 -7.28773
LeftHand  -0.244104 0.0205437 5.32207
RightShoulder  6.10979 9.55155 40.6251
RightArm  -3.61711 -13.3266 32.1939
RightForeArm  18.571 7.54192 7.03847
RightHand  -0.463969 -0.248896 -10.5007
LeftUpLeg  14.013 3.29769 -3.98016
LeftLeg  16.794 -6.1149 -2.04864
LeftFoot  -21.3267 0.999067 9.93542
LeftToes  1.76439e-010 -1.07097e-011 2.32476e-011
558
root  12.6017 38.5911 34.1918 176.349 60.3094 -178.535
RightUpLeg  -16.6876 -8.20857 -8.60362
RightLeg  5.72446 4.08236 1.47894
RightFoot  6.36489 -1.24965 8.29982
RightToes  -5.8209e-011 0 -3.6325e-017
Spine  4.16853 -1.62071 1.91881
Spine1  9.80642 -1.05586 -2.68175
HEad  45.8638 -8.2414 174.222
LeftShoulder1  9.20164 -12.7198 -49.5147
LeftArm  -4.4643 -3.02765 -31.5658
LeftForeArm  34.4451 -39.391 -7.02266
LeftHand  -0.244104 0.0205437 5.32207
RightShoulder  6.06201 9.42321 40.7148
RightArm  -4.46764 -13.1313 31.8844
RightForeArm  17.8334 7.07933 6.88078
RightHand  -0.470952 -0.215264 -10.5915
LeftUpLeg  15.3639 0.468572 -3.36682
LeftLeg  19.0499 -4.62006 -1.33288
LeftFoot  -22.2595 0.908956 8.14652
LeftToes  1.76439e-010 -1.07097e-011 2.32476e-011
559
root  14.1882 38.4188 33.9342 177.72 59.1656 -176.581
RightUpLeg  -17.3535 -8.29041 -6.90063
RightLeg  11.6825 4.4166 1.37399
RightFoot  9.34449 -1.31638 7.55053
RightToes  -5.8209e-011 0 -3.6325e-017
Spine  3.56307 -1.33758 5.54864
Spine1  10.1208 -0.204686 -4.36648
HEad  42.3015 -17.2473 170.56
LeftShoulder1  9.18575 -12.5397 -49.9808
LeftArm  -5.18603 -1.15013 -30.3258
LeftForeArm  33.5502 -37.8616 -6.64624
LeftHand  -0.244104 0.0205437 5.32207
RightShoulder  6.06028 9.31334 41.0799
RightArm  -4.51849 -12.7122 31.3726
RightForeArm  17.4052 6.84018 6.88566
RightHand  -0.49485 -0.10798 -10.9107
LeftUpLeg  16.0952 -2.23535 -2.30836
LeftLeg  22.9439 -2.04924 -0.622462
LeftFoot  -22.2781 0.529767 4.07367
LeftToes  1.76439e-010 -1.07097e-011 2.32476e-011
560
root  15.6732 38.3683 33.6536 -179.99 57.7422 -173.821
RightUpLeg  -17.746 -9.52189 -4.85428
RightLeg  16.9717 5.08678 1.68513
RightFoot  7.76052 -1.02097 6.35327
RightToes  -5.8209e-011 0 -3.6325e-017
Spine  3.07397 -1.06598 9.94634
Spine1  10.473 0.686095 -5.83057
HEad  38.6089 -23.5978 167.939
LeftShoulder1  9.12454 -12.3046 -50.3805
LeftArm  -5.91773 1.03263 -29.2435
LeftForeArm  31.9258 -34.9743 -5.97575
LeftHand  -0.244104 0.0205437 5.32207
RightShoulder  6.03549 9.22803 41.1941
RightArm  -4.33077 -12.2324 31.108
RightForeArm  17.1638 6.8943 6.94971
RightHand  -0.52021 -0.0362977 -11.3224
LeftUpLeg  14.4982 -2.97632 0.273088
LeftLeg  29.7133 -1.10476 -0.350464
LeftFoot  -18.5791 0.0583089 -1.18044
LeftToes  1.76439e-010 -1.07097e-011 2.32476e-011
561
root  17.0462 38.404 33.427 -177.913 55.0402 -171.763
RightUpLeg  -17.4465 -11.8791 -3.14852
RightLeg  20.907 4.62423 1.71341
RightFoot  3.39078 -0.676003 5.42002
RightToes  -5.8209e-011 0 -3.6325e-017
Spine  2.66522 -0.851419 13.0255
Spine1  10.5911 1.23483 -6.13371
HEad  36.1542 -30.2115 167.255
LeftShoulder1  8.9242 -11.9928 -50.2634
LeftArm  -6.23051 2.93471 -28.9451
LeftForeArm  29.3196 -30.651 -5.0599
LeftHand  -0.244104 0.0205437 5.32207
RightShoulder  5.96708 9.18551 40.837
RightArm  -4.0182 -12.0802 31.1906
RightForeArm  16.1081 7.71382 7.08494
RightHand  -0.530528 -0.106714 -11.6927
LeftUpLeg  9.46955 -2.90379 3.40896
LeftLeg  39.5905 -0.28752 0.159272
LeftFoot  -9.88556 0.0871085 -3.92719
LeftToes  1.76439e-010 -1.07097e-011 2.32476e-011
